<svg xmlns="http://www.w3.org/2000/svg" version="1.1" xmlns:xlink="http://www.w3.org/1999/xlink" xmlns:svgjs="http://svgjs.dev/svgjs" width="1000" height="1000" viewBox="0 0 1000 1000"><rect width="1000" height="1000" fill="#000000"></rect><g transform="matrix(0.7,0,0,0.7,149.57575764156883,423.6960097058235)"><svg viewBox="0 0 396 87" data-background-color="#ffffff" preserveAspectRatio="xMidYMid meet" height="219" width="1000" xmlns="http://www.w3.org/2000/svg" xmlns:xlink="http://www.w3.org/1999/xlink"><g id="tight-bounds" transform="matrix(1,0,0,1,0.24000003723040209,-0.19636558647516722)"><svg viewBox="0 0 395.52 87.39273117295032" height="87.39273117295032" width="395.52"><g><svg viewBox="0 0 521.2802477755444 115.18028054110306" height="87.39273117295032" width="395.52"><g transform="matrix(1,0,0,1,0,15.918548178980245)"><svg viewBox="0 0 395.52000000000004 83.34318418314257" height="83.34318418314257" width="395.52000000000004"><g><svg viewBox="0 0 395.52000000000004 83.34318418314257" height="83.34318418314257" width="395.52000000000004"><g><svg viewBox="0 0 395.52000000000004 83.34318418314257" height="83.34318418314257" width="395.52000000000004"><g transform="matrix(1,0,0,1,0,0)"><svg width="395.52000000000004" viewBox="1.9500000476837158 -38.849998474121094 192.1800079345703 40.5" height="83.34318418314257" data-palette-color="#4d7e3e"><path d="M29.05-7.55L31.35-2.6Q30.75-2.15 29.68-1.63 28.6-1.1 27.15-0.65 25.7-0.2 23.93 0.1 22.15 0.4 20.15 0.4L20.15 0.4Q15.9 0.4 12.53-1.07 9.15-2.55 6.8-5.05 4.45-7.55 3.2-10.85 1.95-14.15 1.95-17.85L1.95-17.85Q1.95-21.95 3.43-25.4 4.9-28.85 7.45-31.35 10-33.85 13.43-35.25 16.85-36.65 20.7-36.65L20.7-36.65Q22.15-36.65 23.65-36.45 25.15-36.25 26.48-35.9 27.8-35.55 28.83-35.08 29.85-34.6 30.4-34.1L30.4-34.1Q30-33.5 29.78-33.1 29.55-32.7 29.3-32.27 29.05-31.85 28.75-31.3 28.45-30.75 27.95-29.85L27.95-29.85Q27.3-30.3 26.43-30.6 25.55-30.9 24.6-31.1 23.65-31.3 22.68-31.4 21.7-31.5 20.9-31.5L20.9-31.5Q18-31.5 15.53-30.43 13.05-29.35 11.25-27.53 9.45-25.7 8.43-23.3 7.4-20.9 7.4-18.3L7.4-18.3Q7.4-15.75 8.38-13.4 9.35-11.05 11.08-9.2 12.8-7.35 15.23-6.25 17.65-5.15 20.55-5.15L20.55-5.15Q22.1-5.15 23.55-5.45 25-5.75 26.18-6.15 27.35-6.55 28.13-6.95 28.9-7.35 29.05-7.55L29.05-7.55ZM39.2-38.85L39.2 0 34.95 0 34.95-38.85 39.2-38.85ZM59.75-5.55L62.95-2.45Q61.45-1.1 59.3-0.3 57.15 0.5 54.9 0.5L54.9 0.5Q52.6 0.5 50.57-0.38 48.55-1.25 47.05-2.73 45.55-4.2 44.67-6.2 43.8-8.2 43.8-10.45L43.8-10.45Q43.8-12.7 44.67-14.7 45.55-16.7 47.05-18.2 48.55-19.7 50.52-20.58 52.5-21.45 54.75-21.45L54.75-21.45Q58.3-21.45 60.92-19.33 63.55-17.2 64.7-13.75L64.7-13.75Q63.15-13.2 61.15-12.4 59.15-11.6 57-10.73 54.85-9.85 52.7-9 50.55-8.15 48.7-7.45L48.7-7.45Q49.55-5.75 51.17-4.73 52.8-3.7 54.8-3.7L54.8-3.7Q56.15-3.7 57.52-4.2 58.9-4.7 59.75-5.55L59.75-5.55ZM59.35-14.75L59.35-14.75Q58.75-16 57.45-16.63 56.15-17.25 54.8-17.25L54.8-17.25Q53.35-17.25 52.12-16.7 50.9-16.15 50-15.23 49.1-14.3 48.57-13.1 48.05-11.9 48.05-10.65L48.05-10.65Q48.05-10.4 48.07-10.3 48.1-10.2 48.1-10.15L48.1-10.15Q49.4-10.65 50.92-11.28 52.45-11.9 53.95-12.53 55.45-13.15 56.85-13.73 58.25-14.3 59.35-14.75ZM66.94-10.25L66.94-10.25Q66.94-12.55 67.82-14.58 68.69-16.6 70.19-18.13 71.69-19.65 73.67-20.55 75.64-21.45 77.89-21.45L77.89-21.45Q79.39-21.45 80.64-21.08 81.89-20.7 82.79-20.15 83.69-19.6 84.24-19 84.79-18.4 84.99-17.95L84.99-17.95 85.19-20.9 89.29-20.9 89.29 0 84.99 0 84.99-2.65Q84.74-2.25 84.19-1.7 83.64-1.15 82.77-0.68 81.89-0.2 80.69 0.15 79.49 0.5 77.94 0.5L77.94 0.5Q75.54 0.5 73.52-0.38 71.49-1.25 70.04-2.73 68.59-4.2 67.77-6.15 66.94-8.1 66.94-10.25ZM71.24-10.5L71.24-10.5Q71.24-9.05 71.77-7.8 72.29-6.55 73.19-5.65 74.09-4.75 75.34-4.23 76.59-3.7 78.09-3.7L78.09-3.7Q79.59-3.7 80.87-4.23 82.14-4.75 83.07-5.68 83.99-6.6 84.49-7.83 84.99-9.05 84.99-10.5L84.99-10.5Q84.99-11.95 84.49-13.18 83.99-14.4 83.07-15.3 82.14-16.2 80.87-16.73 79.59-17.25 78.09-17.25L78.09-17.25Q76.59-17.25 75.34-16.73 74.09-16.2 73.19-15.3 72.29-14.4 71.77-13.18 71.24-11.95 71.24-10.5ZM107.74-21.45L106.79-15.95Q105.39-15.95 104.09-15.58 102.79-15.2 101.77-14.45 100.74-13.7 100.14-12.58 99.54-11.45 99.54-10L99.54-10 99.54 0 95.29 0 95.29-20.9 99.04-20.9Q99.14-19.35 99.22-18.07 99.29-16.8 99.39-15.55L99.39-15.55Q100.04-16.9 101.09-18 102.14-19.1 103.34-19.85 104.54-20.6 105.69-21.03 106.84-21.45 107.74-21.45L107.74-21.45ZM104.89-36.25L110.29-36.25Q110.64-35.4 111.44-33.48 112.24-31.55 113.26-29.1 114.29-26.65 115.41-23.9 116.54-21.15 117.54-18.7 118.54-16.25 119.34-14.33 120.14-12.4 120.49-11.55L120.49-11.55Q120.54-11.45 120.74-10.85 120.94-10.25 121.04-9.8L121.04-9.8 121.54-11.55Q121.89-12.4 122.69-14.33 123.49-16.25 124.49-18.7 125.49-21.15 126.61-23.9 127.74-26.65 128.76-29.1 129.79-31.55 130.59-33.48 131.39-35.4 131.74-36.25L131.74-36.25 137.14-36.25Q136.84-35.55 136.06-33.73 135.29-31.9 134.19-29.3 133.09-26.7 131.76-23.6 130.44-20.5 129.06-17.3 127.69-14.1 126.36-11 125.04-7.9 123.96-5.3 122.89-2.7 122.11-0.88 121.34 0.95 121.04 1.65L121.04 1.65 104.89-36.25ZM133.59-10.5L133.59-10.5Q133.59-12.75 134.46-14.75 135.34-16.75 136.84-18.23 138.34-19.7 140.36-20.58 142.39-21.45 144.74-21.45L144.74-21.45Q147.09-21.45 149.11-20.58 151.14-19.7 152.61-18.23 154.09-16.75 154.91-14.75 155.74-12.75 155.74-10.5L155.74-10.5Q155.74-8.25 154.91-6.25 154.09-4.25 152.61-2.75 151.14-1.25 149.11-0.38 147.09 0.5 144.69 0.5L144.69 0.5Q142.39 0.5 140.36-0.3 138.34-1.1 136.84-2.55 135.34-4 134.46-6.03 133.59-8.05 133.59-10.5ZM137.84-10.45L137.84-10.45Q137.84-9.05 138.36-7.83 138.89-6.6 139.81-5.68 140.74-4.75 141.96-4.23 143.19-3.7 144.59-3.7L144.59-3.7Q145.99-3.7 147.24-4.23 148.49-4.75 149.41-5.68 150.34-6.6 150.89-7.83 151.44-9.05 151.44-10.45L151.44-10.45Q151.44-11.85 150.89-13.1 150.34-14.35 149.41-15.28 148.49-16.2 147.24-16.73 145.99-17.25 144.59-17.25L144.59-17.25Q143.19-17.25 141.96-16.73 140.74-16.2 139.81-15.28 138.89-14.35 138.36-13.1 137.84-11.85 137.84-10.45ZM161.73-20.85L161.73-30.1 165.98-30.1 165.98-20.85 171.58-20.85 171.58-17.05 165.98-17.05 165.98 0 161.73 0 161.73-17.05 157.98-17.05 157.98-20.85 161.73-20.85ZM189.18-5.55L192.38-2.45Q190.88-1.1 188.73-0.3 186.58 0.5 184.33 0.5L184.33 0.5Q182.03 0.5 180.01-0.38 177.98-1.25 176.48-2.73 174.98-4.2 174.11-6.2 173.23-8.2 173.23-10.45L173.23-10.45Q173.23-12.7 174.11-14.7 174.98-16.7 176.48-18.2 177.98-19.7 179.96-20.58 181.93-21.45 184.18-21.45L184.18-21.45Q187.73-21.45 190.36-19.33 192.98-17.2 194.13-13.75L194.13-13.75Q192.58-13.2 190.58-12.4 188.58-11.6 186.43-10.73 184.28-9.85 182.13-9 179.98-8.15 178.13-7.45L178.13-7.45Q178.98-5.75 180.61-4.73 182.23-3.7 184.23-3.7L184.23-3.7Q185.58-3.7 186.96-4.2 188.33-4.7 189.18-5.55L189.18-5.55ZM188.78-14.75L188.78-14.75Q188.18-16 186.88-16.63 185.58-17.25 184.23-17.25L184.23-17.25Q182.78-17.25 181.56-16.7 180.33-16.15 179.43-15.23 178.53-14.3 178.01-13.1 177.48-11.9 177.48-10.65L177.48-10.65Q177.48-10.4 177.51-10.3 177.53-10.2 177.53-10.15L177.53-10.15Q178.83-10.65 180.36-11.28 181.88-11.9 183.38-12.53 184.88-13.15 186.28-13.73 187.68-14.3 188.78-14.75Z" opacity="1" transform="matrix(1,0,0,1,0,0)" fill="#ffffff" class="undefined-text-0" data-fill-palette-color="primary" id="text-0"></path></svg></g></svg></g></svg></g></svg></g><g transform="matrix(1,0,0,1,415.1953255492196,0)"><svg viewBox="0 0 106.08492222632471 115.18028054110306" height="115.18028054110306" width="106.08492222632471"><g><svg xmlns="http://www.w3.org/2000/svg" xmlns:xlink="http://www.w3.org/1999/xlink" version="1.1" x="0" y="0" viewBox="-342.4779968261719 256.12200927734375 91.99099731445312 99.87799072265625" enable-background="new -346 256 100 100" xml:space="preserve" height="115.18028054110306" width="106.08492222632471" class="icon-icon-0" data-fill-palette-color="accent" id="icon-0"><g fill="#4d7e3e" data-fill-palette-color="accent"><circle cx="-332.243" cy="261.297" r="5.2" fill="#ffffff" data-fill-palette-color="accent"></circle><path d="M-322.004 280.889v-6.924c0-2.98-1.753-5.9-5.242-5.9l-10.061-0.005c-3.178 0-5.171 2.589-5.171 5.823v7.007H-322.004z" fill="#ffffff" data-fill-palette-color="accent"></path><circle cx="-308.404" cy="261.297" r="5.2" fill="#ffffff" data-fill-palette-color="accent"></circle><path d="M-298.165 280.889v-6.924c0-2.98-1.753-5.9-5.241-5.9l-10.061-0.005c-3.179 0-5.171 2.589-5.171 5.823v7.007H-298.165z" fill="#ffffff" data-fill-palette-color="accent"></path><circle cx="-284.564" cy="261.297" r="5.2" fill="#ffffff" data-fill-palette-color="accent"></circle><path d="M-274.326 280.889v-6.924c0-2.98-1.753-5.9-5.241-5.9l-10.06-0.005c-3.179 0-5.173 2.589-5.173 5.823v7.007H-274.326z" fill="#ffffff" data-fill-palette-color="accent"></path><circle cx="-260.726" cy="261.297" r="5.2" fill="#ffffff" data-fill-palette-color="accent"></circle><path d="M-250.487 280.889v-6.924c0-2.98-1.752-5.9-5.24-5.9l-10.061-0.005c-3.179 0-5.173 2.589-5.173 5.823v7.007H-250.487z" fill="#ffffff" data-fill-palette-color="accent"></path></g><g fill="#4d7e3e" data-fill-palette-color="accent"><path d="M-264.699 307.397v10.125c0 0.65 2.496 0.65 2.496 0v-5.882c0-4.026 5.974-4.026 5.974 0V356h-27.762v-8.505c0 0-12.47-7.699-12.47-12.314v-23.326c0-4.673 6.569-4.89 6.569 0v13.443c0 0.706 2.264 0.64 2.264-0.066v-35.729c0-4.02 6.027-4.02 6.027 0v28.02c0 0.65 2.44 0.65 2.44 0v-13.81c0-4.026 6.026-4.026 6.026 0v13.81c0 0.65 2.408 0.65 2.408 0v-10.125C-270.727 303.37-264.699 303.37-264.699 307.397z" fill="#ffffff" data-fill-palette-color="accent"></path></g></svg></g></svg></g></svg></g><defs></defs></svg><rect width="395.52" height="87.39273117295032" fill="none" stroke="none" visibility="hidden"></rect></g></svg></g></svg>